<?xml version="1.0" encoding="UTF-8"?>
<svg xmlns="http://www.w3.org/2000/svg" viewBox="0 0 100 100" aria-label="ioclean">
  <g transform="translate(50 60)">
    <path fill="#624FCE" fill-opacity="0.88" transform="rotate(-115)" d="M0 0C-16-6-22-30 0-52C22-30 16-6 0 0Z"/>
    <path fill="#7A43D5" fill-opacity="0.88" transform="rotate(-75)"  d="M0 0C-16-6-22-30 0-52C22-30 16-6 0 0Z"/>
    <path fill="#9774F0" fill-opacity="0.88" transform="rotate(-35)"  d="M0 0C-16-6-22-30 0-52C22-30 16-6 0 0Z"/>
    <path fill="#7EA3E7" fill-opacity="0.92"                          d="M0 0C-16-6-22-30 0-52C22-30 16-6 0 0Z"/>
    <path fill="#8BD7EF" fill-opacity="0.88" transform="rotate(35)"   d="M0 0C-16-6-22-30 0-52C22-30 16-6 0 0Z"/>
    <path fill="#71D5DA" fill-opacity="0.88" transform="rotate(75)"   d="M0 0C-16-6-22-30 0-52C22-30 16-6 0 0Z"/>
    <path fill="#89D5EE" fill-opacity="0.88" transform="rotate(115)"  d="M0 0C-16-6-22-30 0-52C22-30 16-6 0 0Z"/>
  </g>
</svg>
